<?xml version="1.0" ?><!DOCTYPE svg  PUBLIC '-//W3C//DTD SVG 1.1//EN'  'http://www.w3.org/Graphics/SVG/1.1/DTD/svg11.dtd'><svg enable-background="new 0 0 128 128" id="Слой_1" version="1.1" viewBox="0 0 128 128" xml:space="preserve" xmlns="http://www.w3.org/2000/svg" xmlns:xlink="http://www.w3.org/1999/xlink"><path d="M124,64L124,64c-28.5,42.8-91.5,42.8-120,0l0,0l0,0C32.5,21.2,95.5,21.2,124,64L124,64z" fill="#FFFFFF"/><path d="M14,74L14,74c24.4-36.6,73.9-41.9,105.6-15.9C89.4,21.3,31.2,23.3,4,64l0,0l0,0c4.1,6.2,9,11.5,14.4,15.9  C16.9,78.1,15.4,76.1,14,74L14,74z" fill="#E5E6E6"/><path d="M84.5,35c5.9,5.5,9.5,13.3,9.5,21.9c0,16.6-13.4,30-30,30c-16.6,0-30-13.4-30-30C34,48,37.9,40,44,34.5  C58,29.9,71.5,29.6,84.5,35z" fill="#FFFFFF"/><path d="M44,56.9c0-8.8,4.6-18,10.7-23.5L44,34.5C37.9,40,34,48,34,56.9c0,16.6,13.4,30,30,30c1.7,0,3.4-0.1,5-0.4  C54.8,84.1,44,71.8,44,56.9z" fill="#E5E6E6"/><circle cx="64" cy="57" fill="#E5E6E6" r="7.5"/><path d="M64,66c5,0,9-4,9-9s-4-9-9-9c-5,0-9,4-9,9S59,66,64,66z M64,51c3.3,0,6,2.7,6,6s-2.7,6-6,6s-6-2.7-6-6  S60.7,51,64,51z" fill="#4A374F"/><path d="M64,97.6c24.7,0,47.6-12.3,61.2-32.8c0.3-0.5,0.3-1.2,0-1.7C111.6,42.6,88.7,30.4,64,30.4  c-24.7,0-47.6,12.3-61.2,32.8c-0.3,0.5-0.3,1.2,0,1.7C16.4,85.4,39.3,97.6,64,97.6z M83.5,36.1c5.8,5.4,9,12.8,9,20.8  c0,15.7-12.8,28.5-28.5,28.5S35.5,72.6,35.5,56.9c0-7.4,3.3-15.1,8.8-20.6c0,0,0.1-0.1,0.1-0.2c6.3-1.8,12.9-2.8,19.6-2.8  C70.7,33.4,77.3,34.3,83.5,36.1z M38.9,38c-4.1,5.5-6.4,12.3-6.4,18.9c0,17.4,14.1,31.5,31.5,31.5s31.5-14.1,31.5-31.5  c0-6.8-2.3-13.5-6.3-18.9c13.2,5,24.8,14,33,26C109,83.2,87.3,94.6,64,94.6C40.7,94.6,19,83.2,5.8,64C14.1,52,25.7,43,38.9,38z" fill="#4A374F"/></svg>